#N canvas 962 24 958 566 12;
#X obj 26 20 osc~ 440;
#X obj 24 129 *~ 0;
#X obj 24 178 dac~;
#X floatatom 52 54 5 0 0 0 - - -;
#X obj 51 84 dbtorms;
#X floatatom 80 129 5 0 0 0 - - -;
#X connect 0 0 1 0;
#X connect 1 0 2 0;
#X connect 1 0 2 1;
#X connect 3 0 4 0;
#X connect 4 0 1 1;
#X connect 4 0 5 0;
