#N canvas 962 24 958 566 12;
#X msg 27 38 21;
#X obj 26 90 + 13;
#X floatatom 27 142 5 0 0 0 - - -;
#X obj 98 62 osc~;
#X obj 98 139 *~;
#X obj 98 166 dac~;
#X msg 113 95 0.1;
#X msg 146 95 0;
#X text 144 123 Aplitude (on/off);
#X msg 98 34 220;
#X msg 23 -29 \; pd dsp 1;
#X msg 121 -29 \; pd dsp 0;
#X text 200 -24 audio engine on/off;
#X connect 0 0 1 0;
#X connect 1 0 2 0;
#X connect 3 0 4 0;
#X connect 4 0 5 0;
#X connect 6 0 4 1;
#X connect 7 0 4 1;
#X connect 9 0 3 0;
