#N canvas 962 24 958 566 12;
#X obj 18 13 osc~ 220;
#X msg 83 50 0.1 2000;
#X msg 84 82 0.1 50;
#X msg 85 114 0.1;
#X msg 112 189 0 50;
#X msg 113 220 0;
#X text 158 47 slow on;
#X text 158 80 fast on;
#X text 158 113 instant on;
#X text 175 152 slow off;
#X text 175 185 fast off;
#X text 175 218 insant off;
#X obj 52 251 line~;
#X obj 19 280 *~;
#X obj 22 315 dac~;
#X msg 113 155 0 2000;
#X connect 0 0 13 0;
#X connect 1 0 12 0;
#X connect 2 0 12 0;
#X connect 3 0 12 0;
#X connect 4 0 12 0;
#X connect 5 0 12 0;
#X connect 12 0 13 1;
#X connect 13 0 14 0;
#X connect 13 0 14 1;
#X connect 15 0 12 0;
