#N canvas 962 24 958 566 12;
#X obj 10 18 r frequency;
#X msg 10 43 set \$1;
#X floatatom 10 68 5 0 0 0 - - -;
#X obj 25 102 s frequency;
#X obj 10 136 ftom;
#X obj 10 161 s pitch;
#X msg 150 38 set \$1;
#X floatatom 150 63 5 0 0 0 - - -;
#X obj 150 13 r pitch;
#X obj 165 97 s pitch;
#X obj 150 131 mtof;
#X obj 150 156 s frequency;
#X connect 0 0 1 0;
#X connect 1 0 2 0;
#X connect 2 0 3 0;
#X connect 2 0 4 0;
#X connect 4 0 5 0;
#X connect 6 0 7 0;
#X connect 7 0 9 0;
#X connect 7 0 10 0;
#X connect 8 0 6 0;
#X connect 10 0 11 0;
