#N canvas 1282 24 1278 686 12;
#X obj 14 34 mtof;
#X obj 59 79 * 2;
#X obj 123 79 * 3;
#X obj 181 77 * 4;
#X obj 14 110 osc~;
#X obj 59 110 osc~;
#X obj 122 109 osc~;
#X obj 181 108 osc~;
#X obj 14 233 +~;
#X obj 59 233 *~;
#X obj 59 171 +~;
#X obj 59 202 +~;
#X obj 107 236 tgl 15 0 empty empty empty 17 7 0 10 -262144 -1 -1 1
1;
#X text 57 7 <-- Choose a pitch;
#X text 225 75 frequencies of harmonics;
#X text 132 229 Toggle overtones on/off;
#X floatatom 14 6 5 0 0 0 - - -;
#X obj 122 140 *~ 0.2;
#X obj 59 141 *~ 0.1;
#X obj 181 139 *~ 0.4;
#X obj 14 269 output~;
#X connect 0 0 1 0;
#X connect 0 0 2 0;
#X connect 0 0 3 0;
#X connect 0 0 4 0;
#X connect 1 0 5 0;
#X connect 2 0 6 0;
#X connect 3 0 7 0;
#X connect 4 0 8 0;
#X connect 5 0 18 0;
#X connect 6 0 17 0;
#X connect 7 0 19 0;
#X connect 8 0 20 0;
#X connect 8 0 20 1;
#X connect 9 0 8 1;
#X connect 10 0 11 0;
#X connect 11 0 9 0;
#X connect 12 0 9 1;
#X connect 16 0 0 0;
#X connect 17 0 10 1;
#X connect 18 0 10 0;
#X connect 19 0 11 1;
